<svg xmlns="http://www.w3.org/2000/svg" viewBox="0 0 512 512" width="40" height="40" role="img" aria-label="TradeSphere logo">
  <defs>
    <linearGradient id="ts-fav" x1="0" y1="0" x2="1" y2="1">
      <stop offset="0" stop-color="#155eef"/>
      <stop offset="1" stop-color="#6938ef"/>
    </linearGradient>
    <radialGradient id="ts-fav-sheen" cx="0.28" cy="0.18" r="0.9">
      <stop offset="0" stop-color="#ffffff" stop-opacity="0.22"/>
      <stop offset="0.55" stop-color="#ffffff" stop-opacity="0.05"/>
      <stop offset="1" stop-color="#ffffff" stop-opacity="0"/>
    </radialGradient>
  </defs>
  <rect x="24" y="24" width="464" height="464" rx="112" fill="url(#ts-fav)"/>
  <rect x="24" y="24" width="464" height="464" rx="112" fill="url(#ts-fav-sheen)"/>
  <path d="M156 116 L356 116 A24 24 0 0 1 380 140 L380 188 A24 24 0 0 1 356 212 L286 212 L286 340 A20 20 0 0 1 266 360 L246 360 A20 20 0 0 1 226 340 L226 212 L156 212 A24 24 0 0 1 132 188 L132 140 A24 24 0 0 1 156 116 Z" fill="#ffffff"/>
  <path d="M160 396 A120 62 0 0 1 350 360" fill="none" stroke="#ffffff" stroke-opacity="0.85" stroke-width="10" stroke-linecap="round"/>
  <path d="M350 344 L398 360 L350 376 Z" fill="#ffffff"/>
</svg>
